<svg width="24" height="24" xmlns="http://www.w3.org/2000/svg"><path d="M5.530 2.061 C 5.393 2.091,5.186 2.165,5.070 2.227 C 4.801 2.370,4.371 2.800,4.228 3.069 C 3.990 3.514,4.001 3.075,4.003 12.040 C 4.004 19.678,4.009 20.279,4.073 20.523 C 4.251 21.205,4.854 21.789,5.535 21.940 C 5.785 21.995,6.278 22.001,9.560 21.991 L 13.300 21.980 13.492 21.867 C 14.254 21.419,14.107 20.280,13.256 20.044 C 13.149 20.014,11.979 20.000,9.550 20.000 L 6.000 20.000 6.000 12.000 L 6.000 4.000 12.000 4.000 L 18.000 4.000 18.002 8.590 C 18.003 12.320,18.014 13.208,18.057 13.330 C 18.136 13.551,18.298 13.744,18.511 13.869 C 18.672 13.964,18.744 13.980,19.000 13.980 C 19.256 13.980,19.328 13.964,19.489 13.869 C 19.719 13.734,19.868 13.545,19.943 13.295 C 20.028 13.013,20.026 3.950,19.941 3.549 C 19.863 3.178,19.709 2.908,19.401 2.599 C 19.092 2.291,18.822 2.137,18.451 2.059 C 18.059 1.976,5.913 1.977,5.530 2.061 M8.711 6.040 C 8.234 6.183,7.921 6.719,8.033 7.201 C 8.121 7.583,8.397 7.868,8.767 7.960 C 8.885 7.989,9.950 7.999,12.100 7.992 C 15.147 7.980,15.266 7.977,15.418 7.902 C 16.219 7.504,16.164 6.355,15.330 6.057 C 15.209 6.014,14.559 6.004,12.000 6.005 C 10.251 6.006,8.771 6.022,8.711 6.040 M8.711 10.040 C 8.234 10.183,7.921 10.719,8.033 11.201 C 8.121 11.583,8.396 11.867,8.768 11.961 C 8.879 11.989,9.355 12.000,10.100 11.992 C 11.403 11.978,11.431 11.973,11.726 11.669 C 12.215 11.165,12.002 10.297,11.330 10.057 C 11.159 9.996,8.905 9.981,8.711 10.040 M16.550 15.937 C 16.329 16.016,16.136 16.178,16.011 16.391 C 15.916 16.553,15.900 16.623,15.901 16.880 C 15.901 17.093,15.923 17.220,15.975 17.320 C 16.016 17.397,16.393 17.806,16.813 18.229 L 17.576 18.998 16.794 19.789 C 16.098 20.494,16.005 20.604,15.941 20.795 C 15.709 21.496,16.255 22.183,16.985 22.108 C 17.099 22.096,17.252 22.056,17.325 22.018 C 17.399 21.980,17.807 21.606,18.230 21.186 L 19.001 20.424 19.770 21.187 C 20.194 21.607,20.601 21.981,20.675 22.019 C 20.748 22.056,20.901 22.096,21.015 22.108 C 21.733 22.181,22.267 21.525,22.061 20.819 C 21.997 20.598,21.951 20.542,21.210 19.793 L 20.426 19.000 21.209 18.208 C 21.925 17.484,21.998 17.398,22.056 17.201 C 22.135 16.934,22.136 16.829,22.060 16.572 C 21.994 16.351,21.776 16.094,21.552 15.973 C 21.366 15.872,20.871 15.874,20.680 15.976 C 20.603 16.017,20.194 16.394,19.770 16.813 L 19.001 17.575 18.210 16.794 C 17.539 16.131,17.390 16.003,17.223 15.947 C 16.988 15.867,16.755 15.864,16.550 15.937 " fill-rule="evenodd" ></path></svg>