<svg width="25" height="24" viewBox="0 0 25 24" fill="none" xmlns="http://www.w3.org/2000/svg">
<g opacity="0.8">
<path fill-rule="evenodd" clip-rule="evenodd" d="M12.75 0.999756L13.25 3.05487C14.1671 3.15638 15.0434 3.39584 15.8572 3.75216L17.3169 2.22365L18.183 2.72358L17.5885 4.75346C18.316 5.29023 18.9596 5.9339 19.4964 6.66143L21.5262 6.06687L22.0506 6.97502L20.4977 8.39271C20.854 9.20642 21.0935 10.0828 21.195 10.9999L23.25 11.4998V12.4998L21.195 12.9999C21.0935 13.917 20.854 14.7933 20.4976 15.6071L22.0506 17.0248L21.5262 17.9329L19.4963 17.3384C18.9596 18.0659 18.3159 18.7095 17.5884 19.2462L18.183 21.2761L17.317 21.7761L15.8571 20.2476C15.0434 20.6039 14.1671 20.8434 13.25 20.9449L12.75 22.9998L11.7016 22.9998L11.25 20.9449C10.3329 20.8434 9.45657 20.6039 8.64288 20.2476L7.18298 21.7762L6.31694 21.2762L6.91159 19.2463C6.18404 18.7095 5.54035 18.0658 5.00357 17.3383L2.97367 17.9329L2.47356 17.0669L4.00225 15.607C3.64594 14.7933 3.40649 13.9169 3.30498 12.9998L1.25 12.4998V11.4998L3.30499 10.9998C3.4065 10.0828 3.64593 9.20646 4.00222 8.3928L2.47373 6.93291L2.99804 6.02477L5.0035 6.66149C5.54029 5.93392 6.18399 5.29022 6.91155 4.75343L6.31697 2.72357L7.183 2.22356L8.64285 3.75213C9.45655 3.39582 10.3329 3.15637 11.25 3.05487L11.7016 0.999756H12.75ZM10.1949 5.30609C9.90381 5.39533 9.78714 5.73409 9.93938 5.99779L11.525 8.74408C11.6308 8.92747 11.8407 9.02015 12.052 9.00632C12.1175 9.00203 12.1835 8.99986 12.25 8.99986C13.4309 8.99986 14.4525 9.68223 14.942 10.6742C15.0357 10.8643 15.221 10.9999 15.4329 10.9999H18.6027C18.907 10.9999 19.142 10.7298 19.0742 10.4332C18.9168 9.74417 18.6577 9.09446 18.3138 8.50004C17.6989 7.43743 16.8125 6.55088 15.7499 5.93608C14.7211 5.34084 13.5269 4.99986 12.25 4.99986C11.5341 4.99986 10.8442 5.10703 10.1949 5.30609ZM19.0742 13.5666C19.142 13.27 18.907 12.9999 18.6027 12.9999H15.4329C15.2209 12.9999 15.0357 13.1355 14.9419 13.3255C14.4525 14.3175 13.4309 14.9999 12.25 14.9999C12.1835 14.9999 12.1175 14.9977 12.052 14.9934C11.8407 14.9796 11.6308 15.0723 11.5249 15.2557L9.9394 18.002C9.78716 18.2657 9.90383 18.6044 10.1949 18.6937C10.8443 18.8927 11.5341 18.9999 12.25 18.9999C13.5269 18.9999 14.7211 18.6589 15.7497 18.0637C16.8124 17.4488 17.6989 16.5624 18.3137 15.4998C18.6577 14.9053 18.9167 14.2556 19.0742 13.5666ZM7.48117 17.1242C7.70419 17.3318 8.05626 17.2637 8.20862 16.9998L9.79293 14.2556C9.89891 14.072 9.8741 13.8437 9.7561 13.6677C9.43676 13.1911 9.24998 12.6175 9.24998 11.9999C9.24998 11.3823 9.43678 10.8086 9.75612 10.3321C9.87412 10.156 9.89893 9.92771 9.79295 9.74414L8.20857 6.99994C8.05621 6.73605 7.70416 6.66788 7.48115 6.87552C6.97333 7.34835 6.53579 7.89573 6.18614 8.50005C5.59095 9.52876 5.24998 10.723 5.24998 11.9999C5.24998 13.2768 5.59096 14.471 6.18617 15.4997C6.53582 16.104 6.97335 16.6513 7.48117 17.1242ZM11.7506 12.8666C11.8968 12.9512 12.0662 12.9999 12.25 12.9999C12.8022 12.9999 13.25 12.5521 13.25 11.9999C13.25 11.4476 12.8022 10.9999 12.25 10.9999C12.0661 10.9999 11.8966 11.0486 11.7506 11.1331C11.4491 11.3076 11.25 11.6311 11.25 11.9999C11.25 12.3687 11.4492 12.6922 11.7506 12.8666Z" fill="#0A0A0A"/>
</g>
</svg>
