<svg width="24" height="24" xmlns="http://www.w3.org/2000/svg"><path d="M9.958 2.055 C 9.406 2.173,9.577 2.019,5.392 6.197 C 1.580 10.003,1.522 10.064,1.379 10.366 C 1.107 10.943,1.102 11.571,1.365 12.120 C 1.477 12.352,1.670 12.560,3.175 14.068 C 4.734 15.630,4.880 15.766,5.133 15.883 C 5.677 16.137,6.324 16.137,6.866 15.883 C 7.108 15.770,7.252 15.643,8.189 14.709 L 9.241 13.662 12.910 17.326 C 16.196 20.605,16.606 21.002,16.831 21.112 C 17.174 21.280,17.468 21.334,17.912 21.310 C 18.247 21.293,18.317 21.275,18.612 21.128 C 18.920 20.975,19.003 20.902,19.982 19.913 C 20.954 18.931,21.034 18.840,21.158 18.564 C 21.393 18.044,21.375 17.369,21.112 16.831 C 21.002 16.606,20.605 16.196,17.326 12.910 L 13.662 9.241 15.224 7.670 C 16.658 6.228,16.794 6.079,16.899 5.842 C 17.136 5.300,17.130 4.663,16.883 4.133 C 16.771 3.895,16.657 3.762,15.988 3.094 C 15.167 2.276,15.022 2.171,14.551 2.060 C 14.222 1.983,10.314 1.978,9.958 2.055 M14.600 4.500 L 15.099 5.001 10.550 9.550 L 6.000 14.100 4.580 12.680 L 3.160 11.260 6.790 7.630 L 10.420 4.000 12.261 4.000 L 14.101 4.000 14.600 4.500 M15.800 14.220 L 19.340 17.760 18.550 18.550 L 17.760 19.340 14.210 15.790 L 10.660 12.240 11.440 11.460 C 11.868 11.031,12.228 10.680,12.240 10.680 C 12.251 10.680,13.853 12.273,15.800 14.220 " fill-rule="evenodd" ></path></svg>