<svg width="38" height="38" viewBox="0 0 38 38" fill="none" xmlns="http://www.w3.org/2000/svg">
<path d="M19.0012 3.35303C14.7517 3.35303 14.2184 3.37161 12.5493 3.44756C10.8835 3.52384 9.74651 3.78756 8.7516 4.1745C7.72247 4.57415 6.84949 5.10876 5.97976 5.9788C5.10939 6.84851 4.57477 7.72149 4.17381 8.75028C3.78589 9.7455 3.52185 10.8828 3.44687 12.548C3.37254 14.217 3.35299 14.7506 3.35299 19.0001C3.35299 23.2496 3.37189 23.7812 3.44752 25.4503C3.52413 27.116 3.78785 28.253 4.17446 29.2479C4.57445 30.277 5.10906 31.15 5.97911 32.0197C6.84851 32.8901 7.72149 33.426 8.74997 33.8257C9.74553 34.2126 10.8829 34.4763 12.5483 34.5526C14.2174 34.6286 14.7504 34.6471 18.9996 34.6471C23.2494 34.6471 23.7811 34.6286 25.4501 34.5526C27.1159 34.4763 28.2542 34.2126 29.2498 33.8257C30.2786 33.426 31.1503 32.8901 32.0197 32.0197C32.8901 31.15 33.4247 30.2771 33.8256 29.2483C34.2103 28.253 34.4743 27.1157 34.5526 25.4506C34.6275 23.7816 34.6471 23.2496 34.6471 19.0001C34.6471 14.7506 34.6275 14.2173 34.5526 12.5483C34.4743 10.8825 34.2103 9.7455 33.8256 8.75061C33.4247 7.72149 32.8901 6.84851 32.0197 5.9788C31.1493 5.10843 30.2789 4.57382 29.2488 4.1745C28.2513 3.78756 27.1136 3.52384 25.4478 3.44756C23.7788 3.37161 23.2474 3.35303 18.9966 3.35303H19.0012ZM17.5975 6.17276C18.0141 6.17211 18.479 6.17276 19.0012 6.17276C23.179 6.17276 23.6742 6.18775 25.324 6.26273C26.8496 6.33249 27.6776 6.5874 28.2291 6.80157C28.9593 7.08518 29.4799 7.4242 30.0273 7.97184C30.5749 8.51949 30.9139 9.04106 31.1982 9.77125C31.4124 10.3222 31.6676 11.1502 31.737 12.6757C31.812 14.3252 31.8283 14.8207 31.8283 18.9965C31.8283 23.1723 31.812 23.6678 31.737 25.3173C31.6673 26.8428 31.4124 27.6708 31.1982 28.2217C30.9146 28.9519 30.5749 29.4719 30.0273 30.0192C29.4796 30.5668 28.9597 30.9059 28.2291 31.1895C27.6782 31.4046 26.8496 31.6589 25.324 31.7286C23.6745 31.8036 23.179 31.8199 19.0012 31.8199C14.8231 31.8199 14.3279 31.8036 12.6784 31.7286C11.1528 31.6582 10.3248 31.4033 9.77291 31.1891C9.04271 30.9055 8.52113 30.5665 7.97348 30.0189C7.42583 29.4712 7.0868 28.951 6.80255 28.2204C6.58837 27.6695 6.33313 26.8415 6.26369 25.316C6.18872 23.6665 6.17372 23.171 6.17372 18.9926C6.17372 14.8142 6.18872 14.3213 6.26369 12.6718C6.33346 11.1462 6.58837 10.3182 6.80255 9.76669C7.08615 9.03649 7.42583 8.51493 7.97348 7.96728C8.52113 7.41963 9.04271 7.08061 9.77291 6.79636C10.3245 6.58121 11.1528 6.32695 12.6784 6.25686C14.1219 6.19166 14.6812 6.17211 17.5975 6.16885V6.17276ZM27.3535 8.77082C26.9821 8.77082 26.6191 8.88096 26.3103 9.08731C26.0015 9.29365 25.7608 9.58694 25.6187 9.93007C25.4766 10.2732 25.4395 10.6508 25.512 11.015C25.5845 11.3793 25.7634 11.7138 26.0261 11.9764C26.2887 12.239 26.6234 12.4177 26.9876 12.4901C27.3519 12.5625 27.7295 12.5252 28.0725 12.383C28.4156 12.2408 28.7088 12 28.9151 11.6912C29.1213 11.3823 29.2313 11.0192 29.2312 10.6478C29.2312 9.6112 28.3902 8.77017 27.3535 8.77017V8.77082ZM19.0012 10.9647C14.5636 10.9647 10.9657 14.5625 10.9657 19.0001C10.9657 23.4377 14.5636 27.0339 19.0012 27.0339C23.4388 27.0339 27.0357 23.4377 27.0357 19.0001C27.0357 14.5625 23.4385 10.9647 19.0009 10.9647H19.0012ZM19.0012 13.7844C21.8816 13.7844 24.2169 16.1194 24.2169 19.0001C24.2169 21.8804 21.8816 24.2158 19.0012 24.2158C16.1205 24.2158 13.7854 21.8804 13.7854 19.0001C13.7854 16.1194 16.1205 13.7844 19.0012 13.7844V13.7844Z" fill="white"/>
</svg>
