<svg width="24" height="24" viewBox="0 0 24 24" xmlns="http://www.w3.org/2000/svg">
<path d="M6 4V18.8262L6.68262 18.2412L6.75488 18.1846C7.12554 17.9212 7.63328 17.9403 7.98438 18.2412L9.66602 19.6826L11.3496 18.2412L11.4219 18.1846C11.7925 17.9214 12.2994 17.9403 12.6504 18.2412L14.333 19.6826L16.0156 18.2412L16.0879 18.1846C16.4586 17.9211 16.9662 17.9402 17.3174 18.2412L18 18.8262V4H6ZM15 14C15.5523 14 16 14.4477 16 15C16 15.5523 15.5523 16 15 16H9C8.44772 16 8 15.5523 8 15C8 14.4477 8.44772 14 9 14H15ZM13.793 7.29297C14.1835 6.90244 14.8165 6.90244 15.207 7.29297C15.5976 7.68349 15.5976 8.31651 15.207 8.70703L12.207 11.707C12.0195 11.8946 11.7652 12 11.5 12C11.2348 12 10.9805 11.8946 10.793 11.707L9.29297 10.207C8.90245 9.81651 8.90245 9.18349 9.29297 8.79297C9.68349 8.40244 10.3165 8.40244 10.707 8.79297L11.5 9.58594L13.793 7.29297ZM20 21C20 21.3905 19.7726 21.745 19.418 21.9082C19.0632 22.0714 18.6461 22.0129 18.3496 21.7588L16.666 20.3164L14.9844 21.7588C14.6099 22.0798 14.0571 22.0798 13.6826 21.7588L12 20.3154L10.3174 21.7588C9.94289 22.0798 9.39011 22.0798 9.01562 21.7588L7.33301 20.3164L5.65039 21.7588C5.35388 22.0129 4.93683 22.0714 4.58203 21.9082C4.22735 21.745 4 21.3905 4 21V4C4 2.89543 4.89543 2 6 2H18C19.1046 2 20 2.89543 20 4V21Z" />
</svg>
