<svg width="24" height="24" viewBox="0 0 24 24" xmlns="http://www.w3.org/2000/svg">
<path d="M6 4V18.8262L6.68262 18.2412L6.75488 18.1846C7.12554 17.9212 7.63328 17.9403 7.98438 18.2412L9.66602 19.6826L11.3496 18.2412L11.4219 18.1846C11.7925 17.9214 12.2994 17.9403 12.6504 18.2412L14.333 19.6826L16.0156 18.2412L16.0879 18.1846C16.4586 17.9211 16.9662 17.9402 17.3174 18.2412L18 18.8262V4H6ZM15 14C15.5523 14 16 14.4477 16 15C16 15.5523 15.5523 16 15 16H9C8.44772 16 8 15.5523 8 15C8 14.4477 8.44772 14 9 14H15ZM13.0127 6.82324C13.4032 6.43278 14.0363 6.43274 14.4268 6.82324C14.8173 7.21375 14.8172 7.84678 14.4268 8.2373L13.4141 9.25L14.4268 10.2627C14.8172 10.6532 14.8173 11.2863 14.4268 11.6768C14.0363 12.0673 13.4032 12.0672 13.0127 11.6768L12 10.6641L10.9873 11.6768C10.5968 12.0672 9.96375 12.0673 9.57324 11.6768C9.18274 11.2863 9.18278 10.6532 9.57324 10.2627L10.5859 9.25L9.57324 8.2373C9.18278 7.84678 9.18274 7.21375 9.57324 6.82324C9.96375 6.43274 10.5968 6.43278 10.9873 6.82324L12 7.83594L13.0127 6.82324ZM20 21C20 21.3905 19.7726 21.745 19.418 21.9082C19.0632 22.0714 18.6461 22.0129 18.3496 21.7588L16.666 20.3164L14.9844 21.7588C14.6099 22.0798 14.0571 22.0798 13.6826 21.7588L12 20.3154L10.3174 21.7588C9.94289 22.0798 9.39011 22.0798 9.01562 21.7588L7.33301 20.3164L5.65039 21.7588C5.35388 22.0129 4.93683 22.0714 4.58203 21.9082C4.22735 21.745 4 21.3905 4 21V4C4 2.89543 4.89543 2 6 2H18C19.1046 2 20 2.89543 20 4V21Z" />
</svg>
