<?xml version="1.0" encoding="UTF-8"?>
<svg width="500px" height="500px" viewBox="0 0 500 500" version="1.1" xmlns="http://www.w3.org/2000/svg" xmlns:xlink="http://www.w3.org/1999/xlink">
    <path d="M250,41.6666667 C294.791667,41.6666667 338.958333,52.7083333 371.25,63.5416667 C393.958333,71.25 416.041667,80.625 437.5,91.25 L437.5,250.416667 C437.5,308.75 413.333333,366.458333 364.791667,402.5 C346.875,415.833333 326.875,429.375 307.708333,439.583333 C289.375,449.583333 268.541667,458.333333 250,458.333333 C231.458333,458.333333 210.625,449.583333 192.291667,439.583333 C173.125,429.375 153.125,415.833333 135.208333,402.5 C86.6666667,366.458333 62.5,308.75 62.5,250.416667 L62.5,91.25 C83.9583333,80.625 106.041667,71.25 128.75,63.5416667 C161.041667,52.7083333 205.208333,41.6666667 250,41.6666667 Z M309.750523,159.843885 L249.999,219.593667 L190.249477,159.843885 L159.843885,190.249477 L219.594,249.999667 L159.843885,309.750523 L190.249477,340.156115 L250,280.405667 L309.750523,340.156115 L340.156115,309.750523 L280.405,249.999667 L340.156115,190.249477 L309.750523,159.843885 Z"/>
</svg>