<svg width="20" height="20" viewBox="0 0 20 20" fill="none" xmlns="http://www.w3.org/2000/svg">
<path d="M14.2679 2.5C15.5879 2.50012 16.6807 3.52626 16.763 4.84375L17.388 14.8438C17.4779 16.2828 16.3349 17.4999 14.8929 17.5H5.10775C3.66568 17.5 2.52271 16.283 2.61263 14.8438L3.23763 4.84375C3.31998 3.52616 4.41259 2.5 5.73275 2.5H14.2679ZM5.73275 4.16602C5.29283 4.16602 4.92837 4.50827 4.90072 4.94727L4.27572 14.9473C4.24573 15.427 4.62708 15.833 5.10775 15.833H14.8929C15.3734 15.8329 15.7539 15.427 15.724 14.9473L15.099 4.94727C15.0713 4.50835 14.7077 4.16614 14.2679 4.16602H5.73275ZM6.66634 6.66602C6.66652 6.20593 7.0402 5.83301 7.50033 5.83301C7.96034 5.83315 8.33316 6.20601 8.33333 6.66602C8.33333 7.58649 9.07982 8.33301 10.0003 8.33301C10.9207 8.33288 11.6663 7.5864 11.6663 6.66602C11.6665 6.20593 12.0402 5.83301 12.5003 5.83301C12.9603 5.83314 13.3332 6.20601 13.3333 6.66602C13.3333 8.50689 11.8411 9.99987 10.0003 10C8.15934 10 6.66634 8.50696 6.66634 6.66602Z" fill="black"/>
</svg>
