<svg width="20" height="20" viewBox="0 0 20 20" fill="none" xmlns="http://www.w3.org/2000/svg">
<path d="M5.64543 6.45437C5.78292 6.67282 6.06508 6.76012 6.29263 6.63831L6.83502 6.34797C7.11943 6.19573 7.2278 5.83962 7.05597 5.56659C6.88413 5.29357 6.51731 5.23874 6.25695 5.42921L5.76042 5.79246C5.5521 5.94485 5.50794 6.23593 5.64543 6.45437Z" fill="#0F1419"/>
<path d="M12.9412 5.56659C12.7694 5.83961 12.8778 6.19573 13.1622 6.34797L13.7045 6.63831C13.9321 6.76012 14.2143 6.67282 14.3518 6.45437C14.4892 6.23593 14.445 5.94485 14.2368 5.79246L13.7402 5.42921C13.4799 5.23874 13.113 5.29357 12.9412 5.56659Z" fill="#0F1419"/>
<path d="M6.4063 8.15237C6.4776 8.40017 6.72434 8.56375 6.97655 8.51017L7.57838 8.38233C7.89418 8.31528 8.09725 8.00173 8.00797 7.69148C7.9187 7.38123 7.58167 7.22809 7.27846 7.33895L6.70063 7.55023C6.45846 7.63877 6.335 7.90458 6.4063 8.15237Z" fill="#0F1419"/>
<path d="M11.9894 7.69148C11.9001 8.00173 12.1032 8.31528 12.419 8.38233L13.0208 8.51017C13.2731 8.56375 13.5198 8.40017 13.5911 8.15237C13.6624 7.90458 13.5389 7.63877 13.2967 7.55023L12.7189 7.33895C12.4157 7.22809 12.0786 7.38123 11.9894 7.69148Z" fill="#0F1419"/>
<path d="M7.11658 9.49964C6.85856 9.51748 6.66553 9.74131 6.66553 9.99989C6.66553 10.2586 6.85855 10.4823 7.11658 10.5001L7.73001 10.5426C8.05148 10.5649 8.33219 10.3221 8.33219 9.99989C8.33219 9.67764 8.05148 9.43498 7.73001 9.45723L7.11658 9.49964Z" fill="#0F1419"/>
<path d="M12.2677 9.45723C11.9462 9.43498 11.6655 9.67764 11.6655 9.99989C11.6655 10.3221 11.9462 10.5649 12.2677 10.5426L12.8811 10.5001C13.1391 10.4823 13.3322 10.2586 13.3322 9.99989C13.3322 9.74131 13.1391 9.51748 12.8811 9.49964L12.2677 9.45723Z" fill="#0F1419"/>
<path d="M6.4063 11.8475C6.335 12.0953 6.45846 12.3611 6.70063 12.4497L7.27846 12.6609C7.58167 12.7718 7.9187 12.6187 8.00797 12.3084C8.09725 11.9982 7.89418 11.6846 7.57838 11.6175L6.97655 11.4897C6.72434 11.4361 6.4776 11.5998 6.4063 11.8475Z" fill="#0F1419"/>
<path d="M11.9894 12.3084C12.0786 12.6187 12.4157 12.7718 12.7189 12.6609L13.2967 12.4497C13.5389 12.3611 13.6624 12.0953 13.5911 11.8475C13.5198 11.5998 13.2731 11.4361 13.0208 11.4897L12.419 11.6175C12.1032 11.6846 11.9001 11.9982 11.9894 12.3084Z" fill="#0F1419"/>
<path d="M5.64542 13.5454C5.50794 13.7638 5.55211 14.0549 5.76042 14.2073L6.25695 14.5706C6.51731 14.761 6.88412 14.7062 7.05597 14.4331C7.2278 14.1601 7.11943 13.8041 6.83502 13.6518L6.29263 13.3615C6.06507 13.2396 5.78292 13.327 5.64542 13.5454Z" fill="#0F1419"/>
<path d="M12.9412 14.4331C13.113 14.7062 13.4799 14.761 13.7402 14.5706L14.2368 14.2073C14.445 14.0549 14.4892 13.7638 14.3518 13.5454C14.2143 13.327 13.9321 13.2396 13.7045 13.3615L13.1621 13.6518C12.8778 13.8041 12.7694 14.1601 12.9412 14.4331Z" fill="#0F1419"/>
<path fill-rule="evenodd" clip-rule="evenodd" d="M9.99984 1.66675C5.39746 1.66675 1.6665 5.39771 1.6665 10.0001C1.6665 14.6024 5.39746 18.3334 9.99984 18.3334C14.6022 18.3334 18.3332 14.6024 18.3332 10.0001C18.3332 5.39771 14.6022 1.66675 9.99984 1.66675ZM3.33317 10.0001C3.33317 6.31818 6.31794 3.33341 9.99984 3.33341C13.6818 3.33341 16.6665 6.31818 16.6665 10.0001C16.6665 13.682 13.6818 16.6667 9.99984 16.6667C6.31794 16.6667 3.33317 13.682 3.33317 10.0001Z" fill="#0F1419"/>
</svg>
