<svg width="20" height="20" viewBox="0 0 20 20" fill="none" xmlns="http://www.w3.org/2000/svg">
<path d="M7.12012 19.9556C6.87109 19.9556 6.66113 19.8701 6.49023 19.6992C6.31934 19.5283 6.23389 19.3208 6.23389 19.0767V15.1069C6.23389 15.019 6.24609 14.9312 6.27051 14.8433C6.2998 14.7554 6.34619 14.6675 6.40967 14.5796L8.4751 11.6938C8.36279 11.313 8.26758 10.9028 8.18945 10.4634C8.11133 10.019 8.04785 9.59424 7.99902 9.18896C7.95508 8.78369 7.9209 8.43945 7.89648 8.15625C7.88184 8 7.85498 7.88037 7.81592 7.79736C7.78174 7.70947 7.73047 7.6167 7.66211 7.51904L6.02881 5.17529C5.9751 5.09717 5.93359 5.01904 5.9043 4.94092C5.87988 4.86279 5.86768 4.77246 5.86768 4.66992V1.76953C5.86768 1.53027 5.95557 1.3252 6.13135 1.1543C6.31201 0.978516 6.52441 0.890625 6.76855 0.890625C7.0127 0.890625 7.22266 0.978516 7.39844 1.1543C7.5791 1.3252 7.66943 1.53027 7.66943 1.76953V4.38428L8.57764 5.70264C8.76318 5.96631 8.98779 6.15918 9.25146 6.28125C9.52002 6.39844 9.82031 6.49609 10.1523 6.57422C10.4307 6.64746 10.7261 6.72559 11.0386 6.80859C11.3511 6.88672 11.6611 7.00146 11.9688 7.15283L14.0122 8.1709C14.1831 8.25879 14.3174 8.39551 14.415 8.58105L15.8359 11.4155C15.9775 11.7036 16.002 11.9575 15.9092 12.1772C15.8213 12.397 15.6699 12.5581 15.4551 12.6606C15.2402 12.7632 15.0156 12.7852 14.7812 12.7266C14.5518 12.6631 14.3687 12.4971 14.2319 12.2285L12.9429 9.64307L11.5659 8.93994C11.478 8.90088 11.417 8.89355 11.3828 8.91797C11.3486 8.94238 11.3364 9.0083 11.3462 9.11572C11.3853 9.55029 11.4463 9.97021 11.5293 10.3755C11.6172 10.7808 11.7417 11.1421 11.9028 11.4595L15.4844 18.6445C15.6211 18.9131 15.6406 19.1548 15.543 19.3696C15.4502 19.5845 15.2964 19.7432 15.0815 19.8457C14.8716 19.9531 14.6494 19.9775 14.415 19.9189C14.1855 19.8604 14.0024 19.6895 13.8657 19.4062L12.1299 15.9492L10.2183 13.415C10.189 13.3711 10.1475 13.3467 10.0938 13.3418C10.0449 13.3369 10.001 13.3564 9.96191 13.4004L8.02832 15.4585V19.0767C8.02832 19.3208 7.94043 19.5283 7.76465 19.6992C7.58887 19.8701 7.37402 19.9556 7.12012 19.9556ZM10.7676 5.86377C10.4355 5.86377 10.1328 5.7832 9.85938 5.62207C9.59082 5.46094 9.37598 5.24609 9.21484 4.97754C9.05371 4.7041 8.97314 4.40381 8.97314 4.07666C8.97314 3.74463 9.05371 3.44434 9.21484 3.17578C9.37598 2.90723 9.59082 2.69238 9.85938 2.53125C10.1328 2.36523 10.4355 2.28223 10.7676 2.28223C11.0947 2.28223 11.3926 2.36523 11.6611 2.53125C11.9346 2.69238 12.1519 2.90723 12.313 3.17578C12.4741 3.44434 12.5547 3.74463 12.5547 4.07666C12.5547 4.40381 12.4741 4.7041 12.313 4.97754C12.1519 5.24609 11.9346 5.46094 11.6611 5.62207C11.3926 5.7832 11.0947 5.86377 10.7676 5.86377Z" fill="black"/>
</svg>
