<svg width="20" height="20" viewBox="0 0 20 20" fill="none" xmlns="http://www.w3.org/2000/svg">
<path d="M10.0005 8.33203C10.8759 8.33219 11.785 8.82946 12.5405 9.42969C13.3274 10.055 14.0875 10.9028 14.6763 11.8242C15.2605 12.7387 15.7135 13.7854 15.813 14.8115C15.915 15.8643 15.6419 16.9401 14.7212 17.7295C14.0563 18.2993 13.3347 18.4459 12.6333 18.248C12.0234 18.0758 11.5052 17.6593 11.1245 17.333L11.1167 17.3262L11.1079 17.3184C10.8843 17.1163 10.4794 16.9688 10.0142 16.9688C9.54083 16.9688 9.19603 17.1197 9.04346 17.2783L9.01611 17.3076L8.98486 17.333C8.5829 17.6775 8.04264 18.0841 7.40967 18.252C6.70599 18.4385 5.95873 18.3112 5.27979 17.7295C4.35885 16.9401 4.08591 15.8644 4.18799 14.8115C4.28753 13.7853 4.74041 12.7387 5.32471 11.8242C5.91347 10.9028 6.67351 10.055 7.46045 9.42969C8.216 8.82945 9.12505 8.33203 10.0005 8.33203ZM10.0005 9.99805C9.69897 9.99805 9.16332 10.2064 8.49756 10.7354C7.86314 11.2394 7.22435 11.9456 6.729 12.7207C6.22919 13.5029 5.91173 14.2971 5.84619 14.9727C5.78339 15.6212 5.95034 16.1087 6.36475 16.4639C6.6219 16.6842 6.80226 16.6885 6.98291 16.6406C7.23226 16.5743 7.53112 16.3826 7.89209 16.0742C8.46267 15.5165 9.28632 15.3018 10.0142 15.3018C10.764 15.3018 11.6003 15.5273 12.2085 16.0674C12.5943 16.398 12.8656 16.5823 13.0854 16.6445C13.1753 16.6699 13.2439 16.6701 13.3071 16.6553C13.3737 16.6395 13.4835 16.5948 13.6362 16.4639C14.0505 16.1087 14.2176 15.6211 14.1548 14.9727C14.0893 14.2971 13.7717 13.5029 13.272 12.7207C12.7767 11.9456 12.1378 11.2395 11.5034 10.7354C10.8378 10.2065 10.3021 9.99824 10.0005 9.99805ZM3.38623 5.00488C4.03207 4.95277 4.58215 5.29099 4.94971 5.68555C5.35154 6.11714 5.63862 6.71044 5.76416 7.35742C5.88943 8.00351 5.84465 8.65878 5.62354 9.2041C5.4052 9.74217 4.95683 10.281 4.24268 10.3955C3.5406 10.5078 2.94118 10.1513 2.54932 9.73047C2.14761 9.29879 1.86031 8.70553 1.73486 8.05859C1.60971 7.41258 1.65436 6.75714 1.87549 6.21191C2.09382 5.67401 2.54255 5.13515 3.25635 5.02051L3.38623 5.00488ZM15.0493 5.68555C15.4412 5.2647 16.0407 4.9083 16.7427 5.02051C17.4566 5.13499 17.9051 5.67403 18.1235 6.21191C18.3447 6.75717 18.3893 7.41254 18.2642 8.05859C18.1387 8.70574 17.8516 9.29875 17.4497 9.73047C17.0578 10.1514 16.4586 10.508 15.7563 10.3955C15.0425 10.2808 14.5938 9.74204 14.3755 9.2041C14.1545 8.65885 14.1096 8.00336 14.2349 7.35742C14.3604 6.71039 14.6475 6.11718 15.0493 5.68555ZM3.52295 6.66992C3.5022 6.68738 3.46322 6.73259 3.42041 6.83789C3.3397 7.03678 3.29733 7.35776 3.37158 7.74121C3.44573 8.12364 3.60734 8.42081 3.76904 8.59473C3.87384 8.70729 3.94547 8.73683 3.9751 8.74512C3.99582 8.72774 4.03566 8.68385 4.07861 8.57812C4.1593 8.37912 4.2018 8.05832 4.12744 7.6748C4.05318 7.29227 3.89176 6.99506 3.72998 6.82129C3.62338 6.70692 3.55149 6.67752 3.52295 6.66992ZM16.4751 6.66992C16.4457 6.67804 16.3744 6.70816 16.269 6.82129C16.1275 6.97334 15.9858 7.21977 15.9028 7.53516L15.8716 7.6748C15.7973 8.05811 15.8398 8.37909 15.9204 8.57812C15.9626 8.68204 16.002 8.72711 16.0229 8.74512C16.0516 8.73743 16.1234 8.70922 16.23 8.59473C16.3918 8.42087 16.5532 8.12397 16.6274 7.74121L16.6499 7.60059C16.6905 7.27961 16.6492 7.01196 16.5786 6.83789C16.5354 6.73174 16.4957 6.68697 16.4751 6.66992ZM7.59521 1.67969C8.25912 1.76444 8.74366 2.23997 9.03564 2.71094C9.36107 3.23596 9.55436 3.90717 9.58057 4.60742C9.6067 5.30527 9.46493 5.98249 9.15967 6.51172C8.85935 7.03221 8.31043 7.53197 7.5415 7.49805C6.8075 7.46546 6.27695 6.95851 5.96533 6.45605C5.63985 5.93107 5.44669 5.25981 5.42041 4.55957C5.39429 3.8617 5.53603 3.18451 5.84131 2.65527C6.12293 2.16725 6.62278 1.69671 7.31787 1.66797H7.45947L7.59521 1.67969ZM12.6831 1.66797C13.378 1.69692 13.8781 2.1673 14.1597 2.65527C14.4649 3.18447 14.6067 3.86179 14.5806 4.55957C14.5543 5.25974 14.361 5.93111 14.0356 6.45605C13.7241 6.95846 13.1933 7.46527 12.4595 7.49805C11.6904 7.53218 11.1417 7.03225 10.8413 6.51172C10.536 5.98246 10.3943 5.30537 10.4204 4.60742C10.4466 3.90708 10.6398 3.23598 10.9653 2.71094C11.2769 2.20844 11.8074 1.70056 12.5415 1.66797H12.6831ZM7.39697 3.34375C7.37329 3.36291 7.3335 3.40368 7.28467 3.48828C7.16681 3.69279 7.06853 4.0451 7.08545 4.49707C7.10233 4.94672 7.2272 5.32949 7.38135 5.57812C7.48302 5.74202 7.5652 5.80007 7.60303 5.82129C7.62679 5.80196 7.66776 5.76287 7.71631 5.67871C7.83417 5.47422 7.93245 5.12189 7.91553 4.66992C7.89872 4.22034 7.77372 3.83756 7.61963 3.58887C7.51686 3.42311 7.43436 3.36443 7.39697 3.34375ZM12.603 3.34375C12.5655 3.36461 12.4837 3.42382 12.3813 3.58887C12.2272 3.83756 12.1023 4.22023 12.0854 4.66992C12.0685 5.12205 12.1667 5.47425 12.2847 5.67871C12.333 5.76237 12.3732 5.80185 12.397 5.82129C12.4347 5.80027 12.5175 5.74275 12.6196 5.57812C12.7737 5.32947 12.8987 4.94659 12.9155 4.49707C12.9324 4.04528 12.8341 3.69281 12.7163 3.48828C12.6672 3.40318 12.6267 3.36281 12.603 3.34375Z" fill="black"/>
</svg>
