<svg width="20" height="20" viewBox="0 0 20 20" fill="none" xmlns="http://www.w3.org/2000/svg">
<path d="M12.5003 8.33301C12.5003 7.87276 12.1266 7.5 11.6663 7.5C11.2062 7.50018 10.8333 7.87287 10.8333 8.33301C10.8333 8.56325 10.9258 8.77017 11.0775 8.92188C11.2291 9.07352 11.4361 9.16593 11.6663 9.16602C12.1266 9.16602 12.5003 8.79327 12.5003 8.33301ZM4.16632 15C4.1665 15.4601 4.54017 15.833 5.00031 15.833H10.8333V10.6865C10.7503 10.6571 10.6698 10.6236 10.5911 10.5859L8.08917 13.0889C7.76374 13.4143 7.2359 13.4143 6.91046 13.0889L5.83234 12.0107L4.33917 13.5059C4.28655 13.5585 4.2278 13.6011 4.16632 13.6367V15ZM14.1663 8.33301C14.1663 9.42106 13.4706 10.3439 12.5003 10.6875V15.833H15.0003C15.4603 15.8328 15.8331 15.46 15.8333 15V5C15.8333 4.53986 15.4604 4.16619 15.0003 4.16602H12.5003V5.97754C13.4708 6.32102 14.1663 7.24487 14.1663 8.33301ZM4.16632 11.3213L5.24445 10.2441L5.30695 10.1865C5.63426 9.91937 6.11701 9.93897 6.42218 10.2441L7.49933 11.3203L9.41241 9.40723C9.2569 9.08139 9.16632 8.71785 9.16632 8.33301C9.16632 7.24476 9.86268 6.32094 10.8333 5.97754V4.16602H5.00031C4.54007 4.16602 4.16632 4.53976 4.16632 5V11.3213ZM17.5003 15C17.5001 16.3805 16.3808 17.4998 15.0003 17.5H5.00031C3.61971 17.5 2.50048 16.3806 2.50031 15V5C2.50031 3.61929 3.61959 2.5 5.00031 2.5H15.0003C16.3809 2.50018 17.5003 3.6194 17.5003 5V15Z" fill="black"/>
</svg>
