<svg width="20" height="20" viewBox="0 0 20 20" fill="none" xmlns="http://www.w3.org/2000/svg">
<path d="M8.95247 1.38217C9.44812 0.648603 10.5515 0.648704 11.0472 1.38217L11.1439 1.55013L13.1126 5.64779L17.6458 6.24154C18.697 6.37919 19.135 7.67846 18.3529 8.41635H18.3519L15.0384 11.5394L15.8704 16.0003C16.0679 17.0593 14.9472 17.8445 14.0208 17.3451L9.99934 15.1771L5.97981 17.3451C5.05342 17.8446 3.93181 17.0592 4.12922 16.0003L4.96028 11.5394L1.64778 8.41635C0.865131 7.67837 1.3027 6.37916 2.35383 6.24154L6.88704 5.64779L8.85579 1.55013L8.95247 1.38217ZM8.29622 6.56478C8.11009 6.95221 7.74104 7.21732 7.3177 7.27279L3.40657 7.78353L6.26399 10.4779C6.57634 10.7723 6.71886 11.2058 6.63997 11.6292L5.92122 15.4828L9.3968 13.6097L9.54133 13.5433C9.8362 13.4291 10.1634 13.4292 10.4583 13.5433L10.6029 13.6097L14.0784 15.4828L13.3607 11.6292C13.2817 11.2054 13.4237 10.772 13.7357 10.4779L16.5921 7.78353L12.682 7.27279C12.2587 7.21723 11.8895 6.9521 11.7034 6.56478L9.99934 3.01791L8.29622 6.56478Z" fill="black"/>
</svg>
