<svg width="24" height="24" viewBox="0 0 24 24" xmlns="http://www.w3.org/2000/svg">
<path d="M4.5 9C4.32871 9 4.1616 8.98203 4 8.94922V17C4 17.5523 4.44772 18 5 18H20V9H4.5ZM16.5 12C17.3284 12 18 12.6716 18 13.5C18 14.3284 17.3284 15 16.5 15C15.6716 15 15 14.3284 15 13.5C15 12.6716 15.6716 12 16.5 12ZM4.49902 6C4.22414 6 4 6.2226 4 6.5C4 6.77614 4.22386 7 4.5 7H18V6H4.49902ZM20 7C21.1046 7 22 7.89543 22 9V18C22 19.1046 21.1046 20 20 20H5C3.34315 20 2 18.6569 2 17V6.5C2 5.12055 3.11705 4 4.49902 4H18C19.1046 4 20 4.89543 20 6V7Z" />
</svg>