<svg width="81" height="20" viewBox="0 0 81 20" fill="none" xmlns="http://www.w3.org/2000/svg">
<g clip-path="url(#clip0_1397_34666)">
  <g transform="translate(0,0) scale(0.833333)">
    <path d="M23.643 4.937c-.835.37-1.732.62-2.675.733.962-.576 1.7-1.49 2.048-2.578-.9.534-1.897.922-2.958 1.13-.85-.904-2.06-1.47-3.4-1.47-2.572 0-4.658 2.086-4.658 4.66 0 .364.042.718.12 1.06-3.873-.195-7.304-2.05-9.602-4.868-.4.69-.63 1.49-.63 2.342 0 1.616.823 3.043 2.072 3.878-.764-.025-1.482-.234-2.11-.583v.06c0 2.257 1.605 4.14 3.737 4.568-.392.106-.803.162-1.227.162-.3 0-.593-.028-.877-.082.593 1.85 2.313 3.198 4.352 3.234-1.595 1.25-3.604 1.995-5.786 1.995-.376 0-.747-.022-1.112-.065 2.062 1.323 4.51 2.093 7.14 2.093 8.57 0 13.255-7.098 13.255-13.254 0-.2-.005-.402-.014-.602.91-.658 1.7-1.477 2.323-2.41z" fill="black"/>
  </g>
  <path d="M22.5996 19.3185C22.1938 18.9127 21.999 18.4014 21.999 17.7764C21.999 17.1515 22.2019 16.632 22.5996 16.2262C23.0054 15.8123 23.5167 15.6094 24.1417 15.6094C24.7666 15.6094 25.278 15.8123 25.6838 16.2262C26.0896 16.6401 26.2844 17.1515 26.2844 17.7764C26.2844 18.4014 26.0815 18.9127 25.6838 19.3185C25.2861 19.7244 24.7666 19.9192 24.1417 19.9192C23.5167 19.9192 23.0054 19.7162 22.5996 19.3185Z" fill="black"/>
  <path d="M35.7399 8.29671C35.1312 8.29671 34.6199 8.43469 34.2141 8.71064C33.8001 8.9866 33.4674 9.34372 33.2076 9.782C32.9479 10.2203 32.7693 10.6991 32.6557 11.2267C32.5421 11.7543 32.4934 12.2737 32.4934 12.7932C32.4934 13.3126 32.5502 13.7996 32.6557 14.319C32.7612 14.8385 32.9398 15.3092 33.1752 15.7232C33.4187 16.1452 33.7433 16.4861 34.1572 16.7539C34.5712 17.0218 35.0663 17.1598 35.6588 17.1598C36.5678 17.1598 37.2739 16.9082 37.7609 16.3968C38.2479 15.8855 38.5563 15.2037 38.6862 14.3515H42.3548C42.1031 16.1939 41.3889 17.5899 40.212 18.5558C39.0352 19.5216 37.5255 20.0005 35.6831 20.0005C34.6442 20.0005 33.6946 19.83 32.8343 19.481C31.9658 19.132 31.2354 18.645 30.6266 18.0201C30.0179 17.3951 29.5472 16.6484 29.2063 15.78C28.8654 14.9115 28.6949 13.9619 28.6949 12.9311C28.6949 11.9004 28.8492 10.8615 29.1657 9.94433C29.4741 9.02718 29.9367 8.23178 30.5455 7.55812C31.1542 6.88447 31.8928 6.36502 32.7693 5.99167C33.6459 5.61832 34.6442 5.43164 35.7724 5.43164C36.5921 5.43164 37.3875 5.53715 38.1424 5.7563C38.8972 5.96732 39.579 6.30009 40.1796 6.73026C40.7802 7.16854 41.2672 7.71233 41.6405 8.36164C42.0139 9.01095 42.233 9.782 42.2817 10.6748H38.5563C38.3047 9.08399 37.3713 8.28859 35.7399 8.28859V8.29671Z" fill="black"/>
  <path d="M43.8806 9.72519C44.2215 8.82427 44.7004 8.05322 45.3253 7.42015C45.9503 6.78707 46.697 6.29197 47.5736 5.95109C48.4501 5.60208 49.4322 5.43164 50.5198 5.43164C51.6074 5.43164 52.5976 5.60208 53.4823 5.95109C54.3669 6.30009 55.1218 6.78707 55.7467 7.42015C56.3717 8.05322 56.8505 8.82427 57.1914 9.72519C57.5323 10.6261 57.7028 11.6325 57.7028 12.7363C57.7028 13.8402 57.5323 14.8466 57.1914 15.7394C56.8505 16.6322 56.3717 17.3951 55.7467 18.0282C55.1218 18.6613 54.3669 19.1483 53.4823 19.4891C52.5976 19.83 51.6074 20.0005 50.5198 20.0005C49.4322 20.0005 48.4501 19.83 47.5736 19.4891C46.697 19.1483 45.9503 18.6613 45.3253 18.0282C44.7004 17.3951 44.2215 16.6322 43.8806 15.7394C43.5397 14.8466 43.3693 13.8483 43.3693 12.7363C43.3693 11.6244 43.5397 10.6261 43.8806 9.72519ZM47.3382 14.3596C47.4437 14.8872 47.6304 15.3579 47.8901 15.78C48.1498 16.202 48.4907 16.5348 48.9209 16.7864C49.351 17.038 49.8867 17.1598 50.5279 17.1598C51.1691 17.1598 51.7129 17.038 52.1512 16.7864C52.5895 16.5348 52.9385 16.202 53.1982 15.78C53.4579 15.3579 53.6365 14.8872 53.7501 14.3596C53.8556 13.8321 53.9124 13.2964 53.9124 12.7363C53.9124 12.1763 53.8556 11.6406 53.7501 11.105C53.6446 10.5693 53.4579 10.0985 53.1982 9.68461C52.9385 9.27067 52.5895 8.9379 52.1512 8.67818C51.7129 8.41845 51.1772 8.28859 50.5279 8.28859C49.8786 8.28859 49.351 8.41845 48.9209 8.67818C48.4907 8.9379 48.1498 9.27067 47.8901 9.68461C47.6304 10.0985 47.4518 10.5693 47.3382 11.105C47.2327 11.6406 47.1759 12.1844 47.1759 12.7363C47.1759 13.2883 47.2327 13.8321 47.3382 14.3596Z" fill="black"/>
  <path d="M63.1651 5.80529V7.68017H63.2219C63.7251 6.96593 64.3257 6.41402 65.0318 6.01632C65.7379 5.62674 66.5415 5.42383 67.4586 5.42383C68.3758 5.42383 69.1306 5.59427 69.8529 5.93516C70.5753 6.27604 71.1272 6.86854 71.5005 7.72887C71.9145 7.12014 72.4664 6.58447 73.1725 6.12183C73.8786 5.6592 74.7146 5.42383 75.6805 5.42383C76.4109 5.42383 77.0927 5.51311 77.7177 5.69167C78.3426 5.87023 78.8783 6.1543 79.3247 6.552C79.7711 6.94158 80.1201 7.46103 80.3717 8.0941C80.6233 8.72718 80.7451 9.49012 80.7451 10.3829V19.6518H76.9385V11.8033C76.9385 11.3406 76.9223 10.9024 76.8817 10.4884C76.8492 10.0745 76.7437 9.71737 76.5895 9.41707C76.4272 9.11676 76.1918 8.87327 75.8752 8.69471C75.5668 8.51615 75.1367 8.42687 74.601 8.42687C74.0653 8.42687 73.6351 8.53239 73.3024 8.73529C72.9696 8.9382 72.7099 9.20604 72.5232 9.53881C72.3365 9.87158 72.2148 10.2449 72.1499 10.667C72.0849 11.089 72.0525 11.5111 72.0525 11.9413V19.6518H68.2459V11.8844C68.2459 11.4705 68.2378 11.0647 68.2215 10.667C68.2053 10.2612 68.1241 9.89593 67.9943 9.55505C67.8563 9.21416 67.6372 8.94632 67.3206 8.73529C67.0041 8.53239 66.5496 8.42687 65.9408 8.42687C65.7623 8.42687 65.5269 8.46746 65.2347 8.54862C64.9425 8.62978 64.6585 8.78399 64.3744 9.00314C64.0984 9.23039 63.8631 9.54693 63.6602 9.96898C63.4654 10.391 63.368 10.9348 63.368 11.6166V19.6518H59.5614V5.80529H63.1488H63.1651Z" fill="black"/>
</g>
<defs>
  <clipPath id="clip0_1397_34666">
    <rect width="81" height="20" fill="white"/>
  </clipPath>
</defs>
</svg>
